<svg width="21" height="20" viewBox="0 0 21 20" fill="none" xmlns="http://www.w3.org/2000/svg">
<path d="M19.6375 14.8729C19.4041 14.6061 17.9701 13.4723 17.3365 13.0388C16.8363 12.7053 16.036 12.2385 15.6691 12.0384C15.1356 11.7716 14.5687 11.7383 14.0351 11.905C13.9351 11.9383 13.835 11.9717 13.7683 12.005C13.5015 12.1384 13.3015 12.3719 12.9013 12.8387C12.5011 13.3389 12.4011 13.439 12.4011 13.439C12.3678 13.4723 12.301 13.5057 12.2343 13.539H12.201C11.9009 13.7058 11.4007 13.5723 10.567 13.1722C9.8667 12.8387 9.23312 12.4052 8.53283 11.7716C7.93257 11.238 7.33232 10.5378 6.99886 10.0042C6.53199 9.23717 6.23186 8.37016 6.23186 7.97C6.23186 7.80325 6.29857 7.56983 6.36524 7.46979L6.39857 7.43645C6.39857 7.43645 6.43191 7.40312 6.46528 7.36974C6.59866 7.2697 6.76541 7.13633 6.93216 7.00291C7.69916 6.40266 7.93257 6.16924 8.06595 5.70237C8.19933 5.26886 8.09929 4.76865 7.73249 4.06836C7.19895 3.03461 5.46486 0.833685 4.76457 0.36681C4.66453 0.266768 4.46444 0.166726 4.33107 0.133392C4.03094 1.59144e-05 3.63077 -0.0333574 3.36398 0.0333502C2.99715 0.100058 2.59698 0.333476 1.72998 1.00043C1.22977 1.33389 0.496139 2.03419 0.296056 2.36769C-0.17082 3.16802 -0.0374044 3.83498 0.362763 5.00211C0.762931 6.10257 1.29647 7.20303 1.9301 8.30349L1.96343 8.3702C2.09681 8.57029 2.23023 8.8037 2.3636 9.00379L2.39694 9.07049C2.53031 9.27058 2.66373 9.504 2.7971 9.70408L3.03052 10.0375C3.13056 10.1709 3.19727 10.271 3.29731 10.4044C3.46406 10.6378 3.66415 10.8712 3.83086 11.1047C5.76499 13.6057 7.99928 15.6399 10.6337 17.2739L10.7337 17.3406C11.1006 17.5741 11.5007 17.8075 11.9343 18.0409L12.101 18.141C12.5345 18.3744 12.9347 18.5745 13.3682 18.7746L13.5016 18.8413C14.0018 19.0747 14.4353 19.2748 14.8688 19.4415C15.4024 19.6416 15.6358 19.7083 16.0026 19.7083C16.0693 19.7083 16.136 19.7083 16.2027 19.7083C16.4361 19.7083 16.6696 19.675 16.8697 19.6083C17.1698 19.5082 17.4366 19.3748 17.7701 19.1414C17.8034 19.1081 17.8701 19.0414 17.9368 19.008C18.0035 18.9413 18.1036 18.8746 18.1702 18.8079C18.5371 18.5078 18.9706 18.0409 19.304 17.5741C19.4708 17.3407 19.7042 16.9738 19.8376 16.6737C19.9709 16.4069 20.0043 16.1068 20.0043 15.84C20.0043 15.4731 19.8709 15.1396 19.6375 14.8729Z" fill="#4E37D3"/>
</svg>